<svg width="24" height="24" viewBox="0 0 24 24" fill="none" xmlns="http://www.w3.org/2000/svg">
<path fill-rule="evenodd" clip-rule="evenodd" d="M10.3859 8.35691C10.1542 8.21789 9.86561 8.21425 9.63048 8.34738C9.39534 8.48051 9.25 8.72983 9.25 9.00003V15C9.25 15.2702 9.39534 15.5196 9.63048 15.6527C9.86561 15.7858 10.1542 15.7822 10.3859 15.6432L15.3859 12.6432C15.6118 12.5076 15.75 12.2635 15.75 12C15.75 11.7366 15.6118 11.4925 15.3859 11.3569L10.3859 8.35691ZM13.5423 12L10.75 13.6754V10.3247L13.5423 12Z" fill="white"/>
<path fill-rule="evenodd" clip-rule="evenodd" d="M17.0307 4.64131C13.682 4.37933 10.318 4.37933 6.96938 4.64131L4.72868 4.81661C3.36612 4.92321 2.25143 5.94442 2.02619 7.29246C1.50543 10.4092 1.50543 13.5908 2.02619 16.7076C2.25143 18.0556 3.36612 19.0768 4.72868 19.1834L6.96938 19.3587C10.318 19.6207 13.682 19.6207 17.0307 19.3587L19.2714 19.1834C20.6339 19.0768 21.7486 18.0556 21.9739 16.7076C22.4946 13.5908 22.4946 10.4092 21.9739 7.29246C21.7486 5.94442 20.6339 4.92321 19.2714 4.81661L17.0307 4.64131ZM7.08638 6.13674C10.3572 5.88085 13.6429 5.88085 16.9137 6.13674L19.1544 6.31204C19.83 6.3649 20.3827 6.87125 20.4944 7.53966C20.9878 10.4928 20.9878 13.5073 20.4944 16.4604C20.3827 17.1288 19.83 17.6352 19.1544 17.688L16.9137 17.8633C13.6429 18.1192 10.3571 18.1192 7.08638 17.8633L4.84568 17.688C4.17007 17.6352 3.61736 17.1288 3.50568 16.4604C3.01227 13.5073 3.01227 10.4928 3.50568 7.53966C3.61736 6.87125 4.17007 6.3649 4.84568 6.31204L7.08638 6.13674Z" fill="white"/>
</svg>
