<svg width="206" height="123" viewBox="0 0 206 123" fill="none" xmlns="http://www.w3.org/2000/svg">
<path fill-rule="evenodd" clip-rule="evenodd" d="M149.474 13.7401C159.468 14.1027 167.411 17.6816 175.354 21.7003C201.405 34.8974 210.117 55.3734 192.266 75.4946C164.507 106.698 99.8503 127.12 49.7135 117.695C38.61 115.618 23.5775 113.787 12.5594 103.644C2.30997 94.2122 2.73703 83.0001 7.43468 72.6199C12.2177 61.9771 21.4422 52.1818 28.7876 45.8854C60.9025 18.4142 125.218 -6.55342 183.383 6.6093C184.579 6.86291 185.775 6.42676 186.116 5.63519C186.458 4.84362 185.86 3.99482 184.749 3.74121C124.876 -9.80525 58.5106 15.6985 25.4562 43.9703C16.3172 51.8216 4.36019 64.9277 0.943718 78.488C-1.3624 87.7561 0.26009 97.2302 9.14292 105.472C20.8443 116.277 36.8165 118.393 48.6033 120.605C100.363 130.339 167.24 109.321 195.853 77.094C215.07 55.4674 205.846 33.4384 177.831 19.2533C169.29 14.8931 160.578 11.125 149.73 10.7322C148.535 10.6894 147.51 11.3286 147.51 12.1587C147.425 12.9888 148.364 13.6973 149.474 13.7401Z" fill="white"/>
</svg>
