<svg width="447" height="41" viewBox="0 0 447 41" fill="none" xmlns="http://www.w3.org/2000/svg">
<path fill-rule="evenodd" clip-rule="evenodd" d="M267.516 18.7263C208.028 19.4545 148.511 22.3433 89.2821 27.507C61.1229 29.9624 28.4217 29.6555 1.1108 38.0268C-0.25003 38.4481 0.00913569 39.7119 0.0385909 39.8383C0.0975013 40.0971 0.344988 40.9577 1.42894 40.9998C1.54676 41.0058 2.37734 40.8854 2.69546 40.8433C10.7603 39.76 18.7957 38.4963 26.8664 37.4732C54.7311 33.9285 82.6782 31.2504 110.667 28.9032C147.815 25.7858 185.283 24.1247 222.532 22.8248C242.92 22.1146 263.798 23.0595 284.252 21.591C291.763 21.5489 299.274 21.543 306.785 21.5671C338.185 21.6814 369.548 22.8971 400.895 24.5641C410.974 25.0998 418.662 25.6775 428.53 26.0687C432.276 26.2191 438.22 26.3215 442.356 26.3877C442.963 26.3997 444.512 26.4116 445.154 26.4176C445.219 26.4297 445.284 26.4297 445.354 26.4297C445.602 26.4297 445.72 26.4116 445.743 26.4116C447.145 26.201 447.016 24.8469 446.98 24.6423C446.974 24.6002 446.762 23.4567 445.555 23.4146C445.266 23.4025 443.198 23.3906 442.403 23.3786C438.291 23.3124 432.371 23.21 428.642 23.0656C418.792 22.6744 411.11 22.0967 401.048 21.561C369.654 19.894 338.243 18.6723 306.797 18.558C302.956 18.5459 299.109 18.5399 295.268 18.5459C295.139 18.2029 294.85 17.8177 294.214 17.6492C293.619 17.4927 289.36 17.3543 287.716 17.2159C275.551 16.1928 275.91 16.241 262.526 15.4044C242.255 14.1346 239.168 13.8456 218.084 13.3099C179.786 12.335 141.471 12.4133 103.167 12.5096C84.257 12.5638 64.0094 13.8697 44.8105 11.4323C51.1375 10.674 57.4881 10.1204 63.8268 9.48846C85.4705 7.33394 107.132 5.99783 128.864 5.05899C180.994 2.80817 233.206 1.91153 285.318 4.98082C274.225 5.08915 263.139 5.34184 252.046 5.50433C206.891 6.17837 161.3 5.67289 116.239 9.16948C115.432 9.23568 114.826 9.95782 114.885 10.7823C114.943 11.6128 115.656 12.2327 116.463 12.1726C161.465 8.67598 206.991 9.18748 252.087 8.51344C268.841 8.26669 285.589 7.82138 302.343 7.95379C308.093 8.00193 313.843 8.21862 319.592 8.29084C320.729 8.3089 323.657 8.53759 324.076 8.4413C325 8.23066 325.201 7.5325 325.259 7.18946C325.289 6.98484 325.383 5.80527 323.969 5.38399C314.32 2.50728 296.511 2.63969 287.133 2.07397C234.378 -1.11568 181.518 -0.225011 128.74 2.04988C106.955 2.99474 85.2408 4.33688 63.5382 6.49742C55.9564 7.2497 48.357 7.89966 40.8047 8.89869C39.5852 9.06118 36.8459 9.29593 35.5204 9.54268C34.9666 9.64499 34.566 9.78933 34.3893 9.89163C33.7 10.2888 33.5763 10.8666 33.5763 11.2578C33.5704 11.5587 33.6942 12.6179 35.1375 12.9068C57.1287 17.3061 81.0582 15.5789 103.173 15.5187C141.453 15.4224 179.739 15.3441 218.013 16.3191C239.044 16.8547 242.119 17.1377 262.349 18.4075C264.346 18.5279 266.037 18.6361 267.516 18.7263Z" fill="black"/>
</svg>
