<svg width="20" height="20" viewBox="0 0 20 20" fill="none" xmlns="http://www.w3.org/2000/svg">
<path d="M6.23615 4.38287C5.28246 4.48946 4.51908 5.24216 4.40874 6.18558C4.11233 8.71987 4.11233 11.2801 4.40874 13.8144C4.51908 14.7578 5.28246 15.5105 6.23615 15.6171C8.71684 15.8943 11.2832 15.8943 13.7639 15.6171C14.7176 15.5105 15.481 14.7578 15.5913 13.8144C15.8043 11.9934 15.8642 10.1591 15.7711 8.33059C15.7687 8.28337 15.7864 8.23731 15.8198 8.20388L16.6855 7.33823C16.7856 7.23803 16.9568 7.30069 16.9675 7.44199C17.1309 9.61275 17.086 11.7953 16.8328 13.9596C16.6538 15.4904 15.4247 16.6892 13.9027 16.8593C11.3298 17.1469 8.67027 17.1469 6.09731 16.8593C4.57532 16.6892 3.34624 15.4904 3.1672 13.9596C2.85951 11.3288 2.85951 8.67114 3.1672 6.04038C3.34624 4.50957 4.57532 3.31071 6.09731 3.1406C8.67027 2.85304 11.3298 2.85304 13.9027 3.1406C14.4388 3.20051 14.9385 3.38804 15.3688 3.67273C15.4535 3.72875 15.4619 3.84778 15.3901 3.91957L14.721 4.58864C14.6663 4.64337 14.5814 4.65258 14.5132 4.61602C14.2853 4.49394 14.0321 4.41285 13.7639 4.38287C11.2832 4.10561 8.71684 4.10561 6.23615 4.38287Z" fill="black"/>
<path d="M17.5253 5.02525C17.7694 4.78117 17.7694 4.38545 17.5253 4.14137C17.2812 3.89729 16.8855 3.89729 16.6414 4.14137L9.58334 11.1994L7.52528 9.14137C7.2812 8.89729 6.88547 8.89729 6.6414 9.14137C6.39732 9.38545 6.39732 9.78117 6.6414 10.0253L9.1414 12.5253C9.38548 12.7693 9.7812 12.7693 10.0253 12.5253L17.5253 5.02525Z" fill="black"/>
</svg>
