<svg width="24" height="24" viewBox="0 0 24 24" fill="none" xmlns="http://www.w3.org/2000/svg">
<path fill-rule="evenodd" clip-rule="evenodd" d="M10.4877 3.78769C11.4723 2.80312 12.8076 2.25 14.2 2.25H16.9C17.3142 2.25 17.65 2.58579 17.65 3V6.6C17.65 7.01421 17.3142 7.35 16.9 7.35H14.2C14.1602 7.35 14.1221 7.3658 14.0939 7.39393C14.0658 7.42206 14.05 7.46022 14.05 7.5V9.45H16.9C17.131 9.45 17.349 9.5564 17.4912 9.73844C17.6333 9.92048 17.6836 10.1578 17.6276 10.3819L16.7276 13.9819C16.6441 14.3158 16.3442 14.55 16 14.55H14.05V21C14.05 21.4142 13.7142 21.75 13.3 21.75H9.7C9.28579 21.75 8.95 21.4142 8.95 21V14.55H7C6.58579 14.55 6.25 14.2142 6.25 13.8V10.2C6.25 9.78579 6.58579 9.45 7 9.45H8.95V7.5C8.95 6.10761 9.50312 4.77226 10.4877 3.78769ZM14.2 3.75C13.2054 3.75 12.2516 4.14509 11.5483 4.84835C10.8451 5.55161 10.45 6.50544 10.45 7.5V10.2C10.45 10.6142 10.1142 10.95 9.7 10.95H7.75V13.05H9.7C10.1142 13.05 10.45 13.3858 10.45 13.8V20.25H12.55V13.8C12.55 13.3858 12.8858 13.05 13.3 13.05H15.4144L15.9394 10.95H13.3C12.8858 10.95 12.55 10.6142 12.55 10.2V7.5C12.55 7.06239 12.7238 6.64271 13.0333 6.33327C13.3427 6.02384 13.7624 5.85 14.2 5.85H16.15V3.75H14.2Z" fill="white"/>
</svg>
