<svg width="294" height="35" viewBox="0 0 294 35" fill="none" xmlns="http://www.w3.org/2000/svg">
<path fill-rule="evenodd" clip-rule="evenodd" d="M134.964 5.09741C133.904 5.15766 132.845 5.22262 131.786 5.28287C117.752 5.84369 103.713 6.51572 89.6601 7.34536C80.8335 7.86447 74.6872 8.25843 69.6315 8.61995C46.7691 9.83892 23.9623 11.6002 1.3136 14.0845C0.89739 14.1308 0.686487 14.2142 0.660069 14.2281C0.0612443 14.5108 0.00979869 14.9975 0.000992448 15.2339C-0.0105947 15.5676 0.0723729 16.0078 0.618823 16.2998C0.684175 16.3323 0.829718 16.4111 1.07954 16.4296C1.18197 16.4389 2.42595 16.3509 4.7786 16.1702C4.65346 16.4297 4.6479 16.6799 4.69518 16.907C4.74245 17.1295 4.94965 17.7784 5.82193 17.8479C6.52828 17.9035 11.4218 17.199 13.3221 17.0136C19.9189 16.374 26.5069 15.6371 33.1083 15.0438C43.4362 14.1122 53.7714 13.2687 64.1081 12.4484C71.155 11.8829 78.2023 11.3313 85.2528 10.7937C94.1073 10.2375 102.965 9.72299 111.826 9.25951C137.286 8.56891 162.746 8.4113 188.061 8.53644C218.23 8.68939 248.556 8.44374 278.529 12.0079L277.037 12.0636L276.504 12.0822C263.461 10.8864 247.772 11.8133 236.723 11.7021C189.146 11.2293 142.325 12.7727 94.9304 16.5641C76.3284 18.0565 57.7366 20.1376 39.2337 22.5245C32.8344 23.3542 16.2175 25.3054 13.9552 26.0331C13.1825 26.2787 12.9744 26.8117 12.9295 26.9971C12.8618 27.2752 12.891 27.5441 13.0231 27.8082C13.1089 27.9797 13.2544 28.1791 13.539 28.332C13.6474 28.3923 13.844 28.471 14.1512 28.5127C14.4321 28.5498 14.9318 28.5731 15.6817 28.5731C76.1305 28.3274 136.349 21.1943 196.696 18.1353C218.967 17.0044 241.237 15.9338 263.512 14.8909C267.874 14.687 272.24 14.5526 276.606 14.395C277.524 14.483 278.423 14.5803 279.308 14.6916L269.278 15.22C249.288 16.2721 229.354 17.7645 209.4 19.4053C163.191 23.2012 117.193 29.5185 70.9436 32.6841C70.3058 32.7305 69.8233 33.282 69.8669 33.9216C69.9105 34.5612 70.4644 35.0433 71.1021 34.9969C117.361 31.8313 163.372 25.5094 209.59 21.7134C229.52 20.0773 249.432 18.5849 269.399 17.5328C276.499 17.162 286.441 16.6382 288.337 16.5316C288.564 16.5177 288.694 16.5085 288.717 16.5039C289.264 16.4436 289.458 16.1191 289.486 16.082C289.769 15.7344 289.792 15.3775 289.704 15.0484C289.648 14.8445 289.505 14.4181 288.916 14.242C288.759 14.1956 288.601 14.1493 288.439 14.1076C290.181 14.0797 291.637 14.0427 292.04 13.95C292.893 13.7507 293.027 13.0925 293.046 12.8515C293.064 12.5966 293.013 12.3232 292.809 12.0543C292.726 11.9431 292.587 11.7948 292.337 11.6743C292.212 11.6186 291.929 11.5259 291.433 11.4471C275.48 8.93042 259.406 7.66518 243.286 7.00703L253.283 7.08578C253.422 7.08578 253.487 7.08115 253.501 7.08115C254.09 7.03016 254.294 6.66863 254.34 6.60374C254.562 6.2932 254.604 5.97338 254.525 5.65821C254.521 5.63504 254.391 5.01858 253.77 4.82391L260.254 4.74052C261.57 4.72661 262.224 4.70815 262.34 4.69888C262.91 4.64326 263.114 4.30945 263.156 4.25383C263.429 3.91085 263.457 3.55396 263.355 3.20635C263.313 3.06267 263.169 2.54357 262.47 2.40453C262.433 2.39526 262.252 2.37216 261.937 2.36753C259.058 2.31654 238.285 2.35818 230.294 2.40453C217.46 2.47869 204.622 2.55754 191.788 2.81709C182.458 3.00249 173.137 3.29442 163.817 3.67448C137.585 3.04413 111.38 1.97352 85.4878 0.00370003C84.85 -0.0472835 84.2929 0.434765 84.2443 1.06974C84.1961 1.70935 84.6744 2.26551 85.3117 2.31649C101.762 3.56327 118.337 4.4578 134.964 5.09741ZM233.59 13.9917C187.153 13.6163 141.409 15.169 95.1153 18.8769C76.5504 20.36 57.9961 22.4411 39.5303 24.8234C37.1517 25.134 33.3373 25.5928 29.3934 26.0841C85.1977 24.9532 140.834 18.6452 196.58 15.8179C208.914 15.1922 221.252 14.5849 233.59 13.9917Z" fill="black"/>
</svg>
